# xmcd CD database file
#
# Track frame offsets:
#	150
#	26425
#	41407
#	62415
#	82215
#	111592
#	134917
#	156965
#	175312
#	206587
#
# Disc length: 3056 seconds
#
# Revision: 0
# Processed by: cddbd v1.5.1PL0 Copyright (c) Steve Scherf et al.
# Submitted via: CDex 1.51
#
DISCID=900bee0a
DTITLE=Kazuo Yashiro - Swinging Piano2
DYEAR=1900
DGENRE=Jazz
TTITLE0=Get Out Of Town
TTITLE1=Triste
TTITLE2=On The Sunny Side Of The Street
TTITLE3=Sonny Boy
TTITLE4=Poinciana
TTITLE5=Deep In A Dream
TTITLE6=Elegy
TTITLE7=Georgia On My Mind
TTITLE8=Stin Doll
TTITLE9=Canters Blues
EXTD=
EXTT0=
EXTT1=
EXTT2=
EXTT3=
EXTT4=
EXTT5=
EXTT6=
EXTT7=
EXTT8=
EXTT9=
PLAYORDER=
